PathFileType	4	(X/Y/Z)	C:\Users\willi\Desktop\Data_PaperCallum_v2\17_Akif\Gait01\marker_experimental_temp.trc
DataRate	CameraRate	NumFrames	NumMarkers	Units	OrigDataRate	OrigDataStartFrame	OrigNumFrames
100.000000	100.000000	4	27	mm	100.000000	45	180
Frame#	Time	C7			T10			Clav			Sternum			Right_Back			PCL_CRAN			PCL_RECHTS			PCL_LINKS			RCL_UL_CRAN			RCL_UL_POST			RCL_UL_ANT			RCL_LL_CRAN			RCL_LL_POST			RCL_LL_ANT			Right_Heel			Right_Toe			Right_M5			LCL_UL_CRAN			LCL_UL_POST			LCL_UL_ANT			LCL_LL_CRAN			LCL_LL_POST			LCL_LL_ANT			Left_Heel			Left_Toe			Left_M5			*26			
		X1	Y1	Z1	X2	Y2	Z2	X3	Y3	Z3	X4	Y4	Z4	X5	Y5	Z5	X6	Y6	Z6	X7	Y7	Z7	X8	Y8	Z8	X9	Y9	Z9	X10	Y10	Z10	X11	Y11	Z11	X12	Y12	Z12	X13	Y13	Z13	X14	Y14	Z14	X15	Y15	Z15	X16	Y16	Z16	X17	Y17	Z17	X18	Y18	Z18	X19	Y19	Z19	X20	Y20	Z20	X21	Y21	Z21	X22	Y22	Z22	X23	Y23	Z23	X24	Y24	Z24	X25	Y25	Z25	X26	Y26	Z26	X27	Y27	Z27	

46	0.45	973.0635986328124	1412.868774414063	191.4483947753906	1014.791687011719	1196.377685546875	200.5241699218749	833.6104125976561	1336.666259765625	206.5820770263671	777.0944213867186	1173.658569335938	226.5881347656249	999.4974975585936	1346.936279296875	75.53251647949213	1005.33544921875	1024.936279296875	203.2447052001953	1015.629577636719	966.2872314453126	179.3454895019531	1016.005126953125	965.1160278320314	229.9608459472656	908.3404541015625	726.0722045898438	46.74943161010737	930.3079223632813	665.5279541015626	56.05564880371088	880.45263671875	666.9207153320313	49.64808273315424	989.89794921875	378.2410278320313	92.37407684326166	1021.901489257813	321.1204833984376	92.77699279785151	971.8221435546875	315.0588684082032	96.11169433593744	1084.57763671875	36.92795944213874	189.1688995361328	883.2503051757813	33.69947433471685	180.4616088867187	930.9216918945313	12.13326358795172	123.2505798339843	849.9114990234375	763.01171875	394.0370788574218	840.5911865234375	698.2506713867188	389.0150756835937	798.2598266601563	722.2008666992188	397.6633605957031	806.039794921875	407.2841796875001	382.7026672363281	845.5606689453125	355.6301269531251	375.4945983886718	796.5218505859375	342.3229980468751	378.1853637695312	964.13232421875	91.77783966064459	275.0111694335937	778.1648559570313	51.37819671630864	329.5236206054687	832.7974243164063	39.42309570312505	371.2879943847656	nan	nan	nan	
47	0.46	959.7120361328124	1411.326171875	191.3214874267578	1001.616760253906	1194.96337890625	200.7925567626953	820.2803344726561	1335.05615234375	206.6291503906249	763.8910522460936	1171.924438476563	226.2297210693359	985.8946533203124	1345.447387695313	75.16390991210932	992.4099121093749	1023.468994140625	204.1514129638671	1002.904724121094	964.7974243164064	180.2606811523437	1002.991088867187	963.6394042968751	230.8786010742187	899.4027709960938	725.0816650390625	46.93098068237299	922.223876953125	664.8828735351563	56.32724380493158	872.34814453125	665.5633544921875	49.92323684692377	986.2952270507813	378.4596862792969	92.85362243652338	1018.976989746094	321.7487792968751	93.34790802001947	969.0060424804688	315.0442199707032	96.33237457275385	1084.352905273438	37.58134460449225	190.0823211669921	883.1356201171875	33.62890625000006	180.3235473632812	931.050537109375	12.1290655136109	123.2846755981445	834.060791015625	762.0083618164063	393.1436157226562	823.7937622070313	697.3919677734375	388.2050170898437	781.6283569335938	721.8544921875	395.8766479492187	783.2530517578125	403.9998168945313	380.0723266601562	819.5552368164063	350.0863952636719	373.5841369628906	769.7372436523438	339.8115844726563	375.6084899902343	920.8216552734375	78.31668090820318	274.4286499023437	732.5905151367188	50.26246643066411	329.0918273925781	786.3560180664063	35.08278274536138	370.9299926757812	nan	nan	nan	
48	0.47	946.2869262695311	1409.56298828125	191.2574310302734	988.3676147460936	1193.341796875	201.1734924316406	806.8632202148436	1333.228515625	206.7357940673828	750.6047973632811	1169.983154296875	225.958023071289	972.2401733398436	1343.720092773438	74.88175964355463	979.3869018554686	1021.783203125	205.1534576416015	990.0709838867186	963.1004028320314	181.2230682373046	989.8722534179686	961.9222412109376	231.8408660888671	890.2836303710938	724.00927734375	47.05406570434565	913.9010620117188	664.1408081054688	56.5144424438476	864.0222778320313	664.144287109375	50.10530090332026	982.28955078125	378.6207275390626	93.29514312744135	1015.640258789063	322.3273315429688	93.8700332641601	965.8103637695313	314.9703674316407	96.54040527343744	1084.12060546875	38.2937965393067	190.9843292236328	883.0204467773438	33.55492019653326	180.1849060058593	931.1951904296875	12.13450908660894	123.3285903930663	818.5182495117188	760.6057739257813	392.1320800781249	807.457275390625	696.1466674804688	387.2455749511718	765.4254760742188	721.0263061523438	393.9685668945312	761.0779418945313	400.5396423339844	377.3840942382812	793.939453125	344.4916687011719	371.6042175292968	743.5355834960938	337.3667907714844	373.1055908203124	876.6065063476563	65.97071075439459	273.9235229492187	686.8760375976563	50.18383789062504	328.3533935546874	739.5034790039063	31.74122047424321	370.3702697753906	nan	nan	nan	
49	0.48	932.7813720703124	1407.599853515625	191.2601165771484	975.0284423828124	1191.529174804688	201.6614990234374	793.3502807617186	1331.208618164063	206.9039306640624	737.2219238281249	1167.861572265625	225.7729034423828	958.5281982421874	1341.77685546875	74.6901016235351	966.2460327148436	1019.899963378906	206.2391815185546	977.1071166992186	961.2159423828126	182.2257995605468	976.6280517578124	959.9875488281251	232.8415832519531	880.9729614257813	722.8679809570313	47.11639404296869	905.3303833007813	663.31298828125	56.63050460815424	855.4633178710938	662.6737670898438	50.18717575073237	977.892578125	378.7352600097657	93.69052124023432	1011.941589355469	322.8780517578126	94.35475158691401	962.2677612304688	314.8504943847657	96.73995971679682	1083.876586914063	39.10436248779303	191.8438568115234	882.9075927734375	33.47808456420904	180.0456237792968	931.356689453125	12.15029716491705	123.3825454711913	803.3132934570313	758.7916259765625	391.0411987304687	791.6701049804688	694.4868774414063	386.1357421874999	749.7293701171875	719.6708984375	391.9865112304687	739.5286865234375	396.9787597656251	374.6546936035156	768.7635498046875	338.9597473144532	369.5579528808593	717.99755859375	335.0521240234376	370.6786499023437	831.7094116210938	55.02772521972661	273.4688415527343	641.2474975585938	51.35511779785161	327.3667297363281	692.4755249023438	29.64461135864262	369.6396789550781	nan	nan	nan	
